            <svg
              xmlns="http://www.w3.org/2000/svg"
              width="100"
              height="100"
              viewBox="0 0 24 24"
              fill="none"
            >
              {" "}
              <path
                d="M23.498 6.174a2.99 2.99 0 00-2.1-2.114C19.813 3.5 12 3.5 12 3.5s-7.812 0-9.398.56A2.993 2.993 0 00.5 6.174C0 7.76 0 12 0 12s0 4.24.5 5.826a2.99 2.99 0 002.1 2.114c1.586.56 9.4.56 9.4.56s7.813 0 9.398-.56a2.99 2.99 0 002.1-2.114C24 16.24 24 12 24 12s0-4.24-.502-5.826zM9.75 15.525V8.475L15.75 12l-6 3.525z"
                fill="#FF0000"
              />
            </svg>